<svg xmlns="http://www.w3.org/2000/svg" viewBox="0 0 32 32" fill="none" role="img" aria-label="LeaseLaw">
  <defs>
    <linearGradient id="ll-bg" x1="4" y1="2" x2="28" y2="30" gradientUnits="userSpaceOnUse">
      <stop stop-color="#2563eb"/>
      <stop offset="1" stop-color="#4338ca"/>
    </linearGradient>
    <linearGradient id="ll-shine" x1="8" y1="6" x2="20" y2="18" gradientUnits="userSpaceOnUse">
      <stop stop-color="#fff" stop-opacity="0.35"/>
      <stop offset="1" stop-color="#fff" stop-opacity="0"/>
    </linearGradient>
  </defs>
  <rect width="32" height="32" rx="8" fill="url(#ll-bg)"/>
  <rect width="32" height="32" rx="8" fill="url(#ll-shine)"/>
  <!-- roof + building -->
  <path
    d="M16 7.5 8.5 14.2V24.5c0 .55.45 1 1 1h5.2v-6.2h2.6v6.2H22.5c.55 0 1-.45 1-1V14.2L16 7.5Z"
    fill="#fff"
    fill-opacity="0.96"
  />
  <!-- citation bracket (rules) -->
  <path
    d="M11.2 11.8c-.9.35-1.5 1.2-1.5 2.2v.3c0 1 .6 1.85 1.5 2.2M20.8 11.8c.9.35 1.5 1.2 1.5 2.2v.3c0 1-.6 1.85-1.5 2.2"
    stroke="#2563eb"
    stroke-width="1.15"
    stroke-linecap="round"
  />
  <!-- navigator pin -->
  <circle cx="23.5" cy="9.5" r="2.35" fill="#fff"/>
  <circle cx="23.5" cy="9.5" r="1.1" fill="#4338ca"/>
</svg>
